<?xml version="1.0" encoding="UTF-8"?>
<svg version="1.1" xmlns="http://www.w3.org/2000/svg" width="512" height="512">
<path d="M0 0 C1.27870972 -0.01051392 1.27870972 -0.01051392 2.58325195 -0.02124023 C5.3995832 -0.03883756 8.21490864 -0.02719147 11.03125 -0.01367188 C12.98893425 -0.01636629 14.9466172 -0.02024829 16.90429688 -0.02526855 C21.00664007 -0.03116595 25.10863482 -0.02259281 29.2109375 -0.00390625 C34.47045628 0.01888337 39.72915864 0.00576159 44.98864746 -0.01819611 C49.0309871 -0.03264751 53.07313305 -0.0280511 57.11547852 -0.01768494 C59.05476986 -0.01501583 60.99407877 -0.01829385 62.93334961 -0.02760315 C65.6435405 -0.03775789 68.35240775 -0.02228315 71.0625 0 C71.86469971 -0.00809692 72.66689941 -0.01619385 73.4934082 -0.02453613 C77.00653496 0.02900014 79.13079167 0.23235312 82.02819824 2.29602051 C83.63247511 4.66719201 84.03580437 5.75771551 84.04882812 8.58007812 C84.06143677 9.36769531 84.07404541 10.1553125 84.08703613 10.96679688 C84.07893921 11.80855469 84.07084229 12.6503125 84.0625 13.51757812 C84.0663269 14.39027344 84.07015381 15.26296875 84.07409668 16.16210938 C84.0768149 18.00456905 84.06945994 19.84706737 84.05273438 21.68945312 C84.03132248 24.50803746 84.05253801 27.32407297 84.078125 30.14257812 C84.07548171 31.93425041 84.07035669 33.72592111 84.0625 35.51757812 C84.07059692 36.35933594 84.07869385 37.20109375 84.08703613 38.06835938 C84.02619461 41.86891335 83.96090431 43.90015594 81.74804688 47.08007812 C79.53125 48.51757812 79.53125 48.51757812 75.53125 48.51757812 C75.86125 54.45757812 76.19125 60.39757813 76.53125 66.51757812 C90.09761328 59.27277083 103.60698982 51.96336297 116.97167969 44.3515625 C124.87765443 39.85959342 132.85265426 35.50413846 140.86767578 31.20996094 C145.54231414 28.70131792 150.18461875 26.16167335 154.76171875 23.47851562 C155.5714917 23.00889404 156.38126465 22.53927246 157.21557617 22.05541992 C158.70214428 21.18855559 160.18101285 20.30827124 161.6496582 19.41137695 C166.19567425 16.77580493 170.24992059 15.2773094 175.53125 16.51757812 C179.73658107 18.2637693 183.64061488 20.4535303 187.59375 22.70507812 C188.7384375 23.33929687 189.883125 23.97351563 191.0625 24.62695312 C194.56464359 26.5686691 198.04852093 28.54124573 201.53125 30.51757812 C203.49863477 31.62836705 205.46607902 32.73905066 207.43359375 33.84960938 C210.23554268 35.43378445 213.03604866 37.02031114 215.83300781 38.61328125 C224.21489028 43.37735499 232.69610081 47.9464844 241.19360352 52.50024414 C249.51786681 56.96311413 257.7888575 61.51145399 266.03222656 66.12158203 C271.13149815 68.97012003 276.23802929 71.80562117 281.34375 74.64257812 C283.0609021 75.59680664 283.0609021 75.59680664 284.81274414 76.5703125 C296.81894963 83.23981238 308.84584094 89.87170903 320.87402344 96.50146484 C327.53095554 100.17087947 334.18588804 103.84392001 340.84118652 107.51629639 C342.65192437 108.51544417 344.46267559 109.5145677 346.2734375 110.51367188 C346.87115967 110.84347046 347.46888184 111.17326904 348.0847168 111.51306152 C352.9505272 114.19761268 357.81726188 116.88048513 362.68431091 119.56278992 C365.70296412 121.22666466 368.72096432 122.89170346 371.73754883 124.55932617 C372.92788911 125.21729968 374.11823741 125.87525868 375.30859375 126.53320312 C375.89665298 126.85827347 376.48471222 127.18334381 377.09059143 127.51826477 C380.83641546 129.58702842 384.58871183 131.6435717 388.34527588 133.69276428 C390.86880139 135.07062763 393.3892046 136.45413761 395.90911865 137.83859253 C397.68029433 138.8090085 399.45558577 139.77190044 401.23095703 140.73461914 C402.2929834 141.31912842 403.35500977 141.9036377 404.44921875 142.50585938 C405.85337036 143.27216675 405.85337036 143.27216675 407.28588867 144.05395508 C409.53125 145.51757813 409.53125 145.51757813 411.53125 148.51757812 C411.79867554 150.6736908 411.79867554 150.6736908 411.82177734 153.20092773 C411.83453705 154.14878647 411.84729675 155.0966452 411.86044312 156.07322693 C411.86378159 157.60609093 411.86378159 157.60609093 411.8671875 159.16992188 C411.8738443 160.22160049 411.8805011 161.27327911 411.88735962 162.35682678 C411.89748846 164.58186085 411.90217657 166.80692532 411.90185547 169.03198242 C411.90622871 172.43849647 411.94254727 175.84371526 411.98046875 179.25 C411.98633677 181.41080285 411.99030626 183.57161187 411.9921875 185.73242188 C412.00655853 186.75230698 412.02092957 187.77219208 412.03573608 188.82298279 C411.99025433 195.85237056 411.99025433 195.85237056 409.71557617 199.14892578 C407.13522119 200.76572136 405.06025231 201.25016577 402.01513672 201.09130859 C396.25537837 199.76091424 391.19270777 196.47529054 386.09375 193.58007812 C384.88689855 192.91255817 383.67922158 192.24652841 382.47070312 191.58203125 C373.77666614 186.76299426 373.77666614 186.76299426 372.53125 185.51757812 C372.20125 230.06757813 371.87125 274.61757813 371.53125 320.51757812 C368.89125 320.51757812 366.25125 320.51757812 363.53125 320.51757812 C363.53125 325.79757812 363.53125 331.07757813 363.53125 336.51757812 C365.78582031 336.47117187 368.04039062 336.42476563 370.36328125 336.37695312 C372.5842057 336.34562145 374.80510409 336.32141175 377.02612305 336.29785156 C378.55162859 336.27792502 380.07705968 336.25077328 381.60229492 336.21582031 C395.35203842 335.90896683 406.23738815 337.69073458 416.53125 347.51757812 C425.24594871 356.64644074 428.14846141 366.63891249 428.04882812 379.05664062 C428.05934204 380.7004068 428.05934204 380.7004068 428.07006836 382.37738037 C428.08753878 385.96604459 428.07606396 389.5539072 428.0625 393.14257812 C428.06519804 395.65641428 428.06908306 398.17024942 428.07409668 400.68408203 C428.07997692 405.93920935 428.07186335 411.1941319 428.05273438 416.44921875 C428.03097098 422.49730604 428.03802447 428.54485369 428.06004 434.59292793 C428.08048267 440.446515 428.07818757 446.29989944 428.06651306 452.15350342 C428.06385673 454.62847979 428.06707676 457.10347006 428.07643127 459.57843018 C428.08666176 463.0454892 428.07100377 466.51153173 428.04882812 469.97851562 C428.05692505 470.98767029 428.06502197 471.99682495 428.07336426 473.03656006 C427.9415789 484.23478518 424.27584981 493.40491813 416.53125 501.51757812 C407.08941361 510.53105143 396.91534695 513.12771051 384.11868286 513.03224182 C382.91633118 513.03918735 381.71397949 513.04613288 380.4751929 513.05328888 C377.16872039 513.06832389 373.86315723 513.06566 370.55672741 513.05513585 C366.97938418 513.04810489 363.40213024 513.06417056 359.82481384 513.07713318 C352.83081724 513.09870891 345.83698375 513.09866367 338.84296484 513.09050763 C333.15961558 513.08419613 327.47631372 513.08535516 321.79296494 513.09177971 C320.9827181 513.09268136 320.17247126 513.09358302 319.33767148 513.094512 C317.691516 513.09636325 316.04536053 513.09822581 314.39920507 513.10009956 C298.98626756 513.11665366 283.57342177 513.10797708 268.16048978 513.09111398 C254.05775945 513.07639837 239.95524181 513.09107574 225.85253884 513.11988414 C211.3619942 513.14926412 196.87154778 513.16025584 182.38097465 513.15070194 C180.74286327 513.1496794 179.10475188 513.14868479 177.46664047 513.14771843 C176.66070459 513.14724204 175.85476871 513.14676565 175.02441052 513.14627482 C169.34493173 513.14410997 163.66554595 513.15391778 157.9860878 513.16848946 C151.06941864 513.18598877 144.15302126 513.18592923 137.23636289 513.1631378 C133.70748612 513.15197713 130.17908866 513.14887397 126.65023232 513.16743851 C122.82720786 513.18729241 119.00493673 513.16850165 115.18191528 513.14576721 C113.50494479 513.1635208 113.50494479 513.1635208 111.79409611 513.18163306 C104.27465949 513.09039831 104.27465949 513.09039831 100.40499687 510.10870266 C99.7866604 509.25363156 99.16832394 508.39856047 98.53125 507.51757812 C97.99314697 506.82913818 97.45504395 506.14069824 96.90063477 505.43139648 C96.42940186 504.74698486 95.95816895 504.06257324 95.47265625 503.35742188 C94.92931641 502.57431641 94.38597656 501.79121094 93.82617188 500.984375 C93.25447266 500.14970703 92.68277344 499.31503906 92.09375 498.45507812 C90.8451875 496.65159895 89.5964857 494.84821621 88.34765625 493.04492188 C87.39656982 491.66602783 87.39656982 491.66602783 86.42626953 490.25927734 C83.48105287 485.99816125 80.50546788 481.75847577 77.53125 477.51757812 C76.37746225 475.86923996 75.2238172 474.22080189 74.0703125 472.57226562 C71.60860882 469.05534929 69.14472972 465.53996768 66.6796875 462.02539062 C66.04804688 461.12433594 65.41640625 460.22328125 64.765625 459.29492188 C63.56045379 457.57578059 62.35475729 455.85700739 61.1484375 454.13867188 C60.601875 453.35878906 60.0553125 452.57890625 59.4921875 451.77539062 C58.71101563 450.67976807 58.71101563 450.67976807 57.9140625 449.56201172 C56.53125 447.51757812 56.53125 447.51757812 54.6796875 444.00195312 C52.29797374 441.24782594 51.852613 441.10317781 48.421875 440.71289062 C46.87572578 440.66003082 45.32829404 440.63744697 43.78125 440.64257812 C42.98847656 440.62195313 42.19570312 440.60132813 41.37890625 440.58007812 C39.43014185 440.53311995 37.48057543 440.52183429 35.53125 440.51757812 C35.53125 443.15757812 35.53125 445.79757812 35.53125 448.51757812 C22.23994368 448.61034633 8.94871467 448.68137808 -4.34284973 448.72482681 C-10.51497857 448.7456823 -16.68688555 448.77396334 -22.85888672 448.81933594 C-28.81760839 448.86286544 -34.77611693 448.88673056 -40.73498535 448.8970871 C-43.00593418 448.90446563 -45.27687163 448.9188742 -47.54772949 448.94049835 C-50.73389701 448.96962598 -53.91918905 448.97353011 -57.10546875 448.97167969 C-58.03983261 448.98606079 -58.97419647 449.00044189 -59.93687439 449.01525879 C-67.04671664 448.97071443 -72.32179721 447.27527369 -77.7109375 442.55273438 C-78.24976562 441.90175781 -78.78859375 441.25078125 -79.34375 440.58007812 C-79.89804688 439.93167969 -80.45234375 439.28328125 -81.0234375 438.61523438 C-85.50287097 432.11400256 -85.14338728 425.14616896 -84.46875 417.51757812 C-82.78789417 410.85798479 -78.00496678 406.33210365 -72.46875 402.51757812 C-58.8370313 397.06489064 -43.15056036 400.51757812 -28.46875 400.51757812 C-28.79875 329.56757813 -29.12875 258.61757813 -29.46875 185.51757812 C-37.05875 189.80757812 -44.64875 194.09757813 -52.46875 198.51757812 C-57.08663618 200.82652121 -57.08663618 200.82652121 -60.46875 200.89257812 C-61.12875 200.9209375 -61.78875 200.94929687 -62.46875 200.97851562 C-65.63842321 200.248005 -66.54827409 199.17764365 -68.46875 196.51757812 C-69.08452273 192.93986881 -69.02885041 189.39038541 -69 185.76757812 C-69.0038269 184.71731445 -69.00765381 183.66705078 -69.01159668 182.58496094 C-69.01431696 180.36587566 -69.00694777 178.14675838 -68.99023438 175.92773438 C-68.96882745 172.52987217 -68.99003325 169.13412451 -69.015625 165.73632812 C-69.01298175 163.58007345 -69.00785682 161.4238201 -69 159.26757812 C-69.00809692 158.25083008 -69.01619385 157.23408203 -69.02453613 156.18652344 C-68.93156501 149.19794653 -68.93156501 149.19794653 -66.79272461 146.05371094 C-64.15724887 144.31167781 -61.53257577 142.69666344 -58.75390625 141.18945312 C-57.03167847 140.24779297 -57.03167847 140.24779297 -55.2746582 139.28710938 C-54.02694631 138.61376394 -52.77914134 137.94059095 -51.53125 137.26757812 C-50.24726909 136.56904067 -48.96366451 135.86981107 -47.68041992 135.16992188 C-45.67758183 134.07781099 -43.67440862 132.98635661 -41.66975403 131.89758301 C-36.8210248 129.26300296 -31.99209815 126.59453843 -27.171875 123.90820312 C-25.83588696 123.16498362 -24.49986855 122.4218187 -23.16381836 121.67871094 C-21.22810705 120.60194904 -19.29301299 119.52415848 -17.3598938 118.44274902 C-15.57148377 117.44297581 -13.78024607 116.44846178 -11.98828125 115.45507812 C-10.96839111 114.88660156 -9.94850098 114.318125 -8.89770508 113.73242188 C-6.46875 112.51757812 -6.46875 112.51757812 -4.46875 112.51757812 C-4.46875 91.39757812 -4.46875 70.27757812 -4.46875 48.51757812 C-6.44875 48.18757813 -8.42875 47.85757813 -10.46875 47.51757812 C-13.09068068 43.5846821 -12.79268556 40.18229937 -12.8046875 35.61523438 C-12.8146727 34.30406898 -12.8146727 34.30406898 -12.82485962 32.96641541 C-12.83498288 31.11801254 -12.83967674 29.26957314 -12.83935547 27.42114258 C-12.84372854 24.59395125 -12.88005002 21.7683213 -12.91796875 18.94140625 C-12.92383701 17.14518763 -12.92780634 15.3489616 -12.9296875 13.55273438 C-12.94405853 12.70783951 -12.95842957 11.86294464 -12.97323608 10.9924469 C-12.96708282 10.20160202 -12.96092957 9.41075714 -12.95458984 8.59594727 C-12.95743988 7.90328262 -12.96028992 7.21061798 -12.96322632 6.4969635 C-11.30121786 -0.15604519 -5.81676043 -0.0587109 0 0 Z " fill="#F6F6F6" transform="translate(84.46875,-0.517578125)"/>
<path d="M0 0 C1.01434992 -0.00445784 2.02869984 -0.00891569 3.07378763 -0.01350862 C4.75802948 -0.01323207 4.75802948 -0.01323207 6.47629642 -0.01294994 C8.2558138 -0.01846498 8.2558138 -0.01846498 10.07128102 -0.02409142 C13.37479904 -0.03323036 16.67826733 -0.03783063 19.98179328 -0.04048073 C23.54097352 -0.0443796 27.10013931 -0.0539585 30.65931034 -0.0626936 C39.2622365 -0.08247409 47.86516386 -0.09252809 56.46810707 -0.10142139 C60.51971726 -0.10580336 64.57132614 -0.11117056 68.6229353 -0.11641026 C82.09358893 -0.13342725 95.56424174 -0.14791977 109.03490448 -0.155159 C112.53221926 -0.1570689 116.02953404 -0.15898923 119.52684879 -0.16094494 C120.83071344 -0.16167055 120.83071344 -0.16167055 122.16091878 -0.16241082 C136.2310293 -0.17070481 150.30105461 -0.19602892 164.37112796 -0.22852562 C178.81845464 -0.26162121 193.26573809 -0.27961018 207.71310288 -0.28280324 C215.82387193 -0.28496647 223.93451691 -0.2936872 232.04524899 -0.31926441 C238.95569023 -0.34100595 245.86597727 -0.34900507 252.77644884 -0.33929763 C256.29988467 -0.33476231 259.8230026 -0.3365936 263.34639454 -0.35605907 C267.17424962 -0.3770229 271.00167036 -0.36667476 274.82956791 -0.35352612 C275.93231932 -0.36449536 277.03507072 -0.37546461 278.17123884 -0.38676625 C289.6450315 -0.29189873 298.88895709 3.17698527 307.22435856 11.13422108 C315.93905727 20.26308369 318.84156997 30.25555545 318.74193668 42.67328358 C318.7524506 44.31704975 318.7524506 44.31704975 318.76317692 45.99402332 C318.78064734 49.58268754 318.76917252 53.17055015 318.75560856 56.75922108 C318.7583066 59.27305724 318.76219162 61.78689238 318.76720524 64.30072498 C318.77308548 69.5558523 318.76497191 74.81077485 318.74584293 80.0658617 C318.72407954 86.113949 318.73113303 92.16149664 318.75314856 98.20957088 C318.77359123 104.06315795 318.77129613 109.91654239 318.75962162 115.77014637 C318.75696529 118.24512274 318.76018532 120.72011301 318.76953983 123.19507313 C318.77977032 126.66213216 318.76411233 130.12817468 318.74193668 133.59515858 C318.75003361 134.60431324 318.75813053 135.6134679 318.76647282 136.65320301 C318.63468746 147.85142814 314.96895837 157.02156108 307.22435856 165.13422108 C297.78252217 174.14769438 287.60845551 176.74435346 274.81179142 176.64888477 C273.60943973 176.6558303 272.40708805 176.66277583 271.16830146 176.66993183 C267.86182895 176.68496685 264.55626579 176.68230295 261.24983597 176.6717788 C257.67249274 176.66474784 254.0952388 176.68081351 250.5179224 176.69377613 C243.5239258 176.71535186 236.53009231 176.71530662 229.5360734 176.70715059 C223.85272414 176.70083909 218.16942228 176.70199811 212.48607349 176.70842266 C211.67582665 176.70932432 210.86557981 176.71022597 210.03078004 176.71115495 C208.38462456 176.7130062 206.73846909 176.71486877 205.09231363 176.71674251 C189.67937612 176.73329662 174.26653033 176.72462003 158.85359834 176.70775693 C144.75086801 176.69304132 130.64835036 176.70771869 116.5456474 176.73652709 C102.05510276 176.76590707 87.56465634 176.7768988 73.07408321 176.76734489 C71.43597183 176.76632235 69.79786044 176.76532774 68.15974903 176.76436138 C67.35381315 176.76388499 66.54787726 176.7634086 65.71751908 176.76291778 C60.03804029 176.76075292 54.35865451 176.77056073 48.67919636 176.78513241 C41.76252719 176.80263172 34.84612982 176.80257218 27.92947145 176.77978075 C24.40059468 176.76862008 20.87219722 176.76551692 17.34334087 176.78408146 C13.52031642 176.80393536 9.69804529 176.7851446 5.87502384 176.76241016 C4.75704352 176.77424589 3.63906319 176.78608162 2.48720467 176.79827601 C-5.03223195 176.70704126 -5.03223195 176.70704126 -8.90189457 173.72534561 C-9.82939927 172.44273897 -9.82939927 172.44273897 -10.77564144 171.13422108 C-11.31374447 170.44578114 -11.8518475 169.75734119 -12.40625668 169.04803944 C-12.87748959 168.36362782 -13.3487225 167.67921619 -13.83423519 166.97406483 C-14.64924496 165.79940662 -14.64924496 165.79940662 -15.48071957 164.60101795 C-16.05241879 163.76634998 -16.624118 162.93168201 -17.21314144 162.07172108 C-18.46170394 160.26824191 -19.71040574 158.46485916 -20.95923519 156.66156483 C-21.59329281 155.74230213 -22.22735043 154.82303944 -22.88062191 153.8759203 C-25.82583962 149.61480269 -28.80159474 145.37524023 -31.77564144 141.13422108 C-32.93587291 139.47541952 -34.09602886 137.81656514 -35.25611019 136.15765858 C-37.64723688 132.74099976 -40.04663109 129.33033683 -42.45142269 125.92328358 C-49.11711698 116.46702988 -55.72267833 106.99877812 -61.77564144 97.13422108 C-62.1594598 96.57557362 -62.54327816 96.01692616 -62.93872738 95.44134998 C-64.90257825 92.41997633 -65.76852063 90.34143674 -65.89282894 86.72406483 C-64.40768948 81.95188593 -61.92924044 78.62425455 -58.90064144 74.69672108 C-57.7024375 73.09243816 -56.5058495 71.48694719 -55.31079769 69.88031483 C-54.71154476 69.08093494 -54.11229183 68.28155506 -53.49487972 67.45795155 C-51.02251917 64.11629751 -48.67314616 60.69763256 -46.33814144 57.25922108 C-40.50019742 48.70610353 -34.55644796 40.22870131 -28.60913754 31.75140858 C-26.7299869 29.06905241 -24.85571028 26.38334885 -22.98267269 23.69672108 C-22.3617474 22.80694569 -21.74082211 21.9171703 -21.10108089 21.00043201 C-19.9227882 19.31170866 -18.74547059 17.62230434 -17.56934261 15.93207264 C-14.91607603 12.13276262 -12.23702889 8.35402844 -9.49439144 4.61859608 C-9.01937191 3.97116444 -8.54435238 3.3237328 -8.05493832 2.65668201 C-5.66937318 -0.1823226 -3.52245423 0.00715679 0 0 Z " fill="#FE926A" transform="translate(193.77564144134521,335.86577892303467)"/>
<path d="M0 0 C1.27870972 -0.01051392 1.27870972 -0.01051392 2.58325195 -0.02124023 C5.3995832 -0.03883756 8.21490864 -0.02719147 11.03125 -0.01367188 C12.98893425 -0.01636629 14.9466172 -0.02024829 16.90429688 -0.02526855 C21.00664007 -0.03116595 25.10863482 -0.02259281 29.2109375 -0.00390625 C34.47045628 0.01888337 39.72915864 0.00576159 44.98864746 -0.01819611 C49.0309871 -0.03264751 53.07313305 -0.0280511 57.11547852 -0.01768494 C59.05476986 -0.01501583 60.99407877 -0.01829385 62.93334961 -0.02760315 C65.6435405 -0.03775789 68.35240775 -0.02228315 71.0625 0 C71.86469971 -0.00809692 72.66689941 -0.01619385 73.4934082 -0.02453613 C77.00653496 0.02900014 79.13079167 0.23235312 82.02819824 2.29602051 C83.63247511 4.66719201 84.03580437 5.75771551 84.04882812 8.58007812 C84.06143677 9.36769531 84.07404541 10.1553125 84.08703613 10.96679688 C84.07893921 11.80855469 84.07084229 12.6503125 84.0625 13.51757812 C84.0663269 14.39027344 84.07015381 15.26296875 84.07409668 16.16210938 C84.0768149 18.00456905 84.06945994 19.84706737 84.05273438 21.68945312 C84.03132248 24.50803746 84.05253801 27.32407297 84.078125 30.14257812 C84.07548171 31.93425041 84.07035669 33.72592111 84.0625 35.51757812 C84.07059692 36.35933594 84.07869385 37.20109375 84.08703613 38.06835938 C84.02619461 41.86891335 83.96090431 43.90015594 81.74804688 47.08007812 C79.53125 48.51757812 79.53125 48.51757812 75.53125 48.51757812 C75.86125 54.45757812 76.19125 60.39757813 76.53125 66.51757812 C90.09761328 59.27277083 103.60698982 51.96336297 116.97167969 44.3515625 C124.87765443 39.85959342 132.85265426 35.50413846 140.86767578 31.20996094 C145.54231414 28.70131792 150.18461875 26.16167335 154.76171875 23.47851562 C155.5714917 23.00889404 156.38126465 22.53927246 157.21557617 22.05541992 C158.70214428 21.18855559 160.18101285 20.30827124 161.6496582 19.41137695 C166.19567425 16.77580493 170.24992059 15.2773094 175.53125 16.51757812 C179.73658107 18.2637693 183.64061488 20.4535303 187.59375 22.70507812 C188.7384375 23.33929687 189.883125 23.97351563 191.0625 24.62695312 C194.56464359 26.5686691 198.04852093 28.54124573 201.53125 30.51757812 C203.49863477 31.62836705 205.46607902 32.73905066 207.43359375 33.84960938 C210.23554268 35.43378445 213.03604866 37.02031114 215.83300781 38.61328125 C224.21489028 43.37735499 232.69610081 47.9464844 241.19360352 52.50024414 C249.51786681 56.96311413 257.7888575 61.51145399 266.03222656 66.12158203 C271.13149815 68.97012003 276.23802929 71.80562117 281.34375 74.64257812 C283.0609021 75.59680664 283.0609021 75.59680664 284.81274414 76.5703125 C296.81894963 83.23981238 308.84584094 89.87170903 320.87402344 96.50146484 C327.53095554 100.17087947 334.18588804 103.84392001 340.84118652 107.51629639 C342.65192437 108.51544417 344.46267559 109.5145677 346.2734375 110.51367188 C346.87115967 110.84347046 347.46888184 111.17326904 348.0847168 111.51306152 C352.9505272 114.19761268 357.81726188 116.88048513 362.68431091 119.56278992 C365.70296412 121.22666466 368.72096432 122.89170346 371.73754883 124.55932617 C372.92788911 125.21729968 374.11823741 125.87525868 375.30859375 126.53320312 C375.89665298 126.85827347 376.48471222 127.18334381 377.09059143 127.51826477 C380.83641546 129.58702842 384.58871183 131.6435717 388.34527588 133.69276428 C390.86880139 135.07062763 393.3892046 136.45413761 395.90911865 137.83859253 C397.68029433 138.8090085 399.45558577 139.77190044 401.23095703 140.73461914 C402.2929834 141.31912842 403.35500977 141.9036377 404.44921875 142.50585938 C405.85337036 143.27216675 405.85337036 143.27216675 407.28588867 144.05395508 C409.53125 145.51757813 409.53125 145.51757813 411.53125 148.51757812 C411.79867554 150.6736908 411.79867554 150.6736908 411.82177734 153.20092773 C411.83453705 154.14878647 411.84729675 155.0966452 411.86044312 156.07322693 C411.86378159 157.60609093 411.86378159 157.60609093 411.8671875 159.16992188 C411.8738443 160.22160049 411.8805011 161.27327911 411.88735962 162.35682678 C411.89748846 164.58186085 411.90217657 166.80692532 411.90185547 169.03198242 C411.90622871 172.43849647 411.94254727 175.84371526 411.98046875 179.25 C411.98633677 181.41080285 411.99030626 183.57161187 411.9921875 185.73242188 C412.00655853 186.75230698 412.02092957 187.77219208 412.03573608 188.82298279 C411.99025433 195.85237056 411.99025433 195.85237056 409.71557617 199.14892578 C407.13522119 200.76572136 405.06025231 201.25016577 402.01513672 201.09130859 C396.25537837 199.76091424 391.19270777 196.47529054 386.09375 193.58007812 C384.88689855 192.91255817 383.67922158 192.24652841 382.47070312 191.58203125 C373.77666614 186.76299426 373.77666614 186.76299426 372.53125 185.51757812 C372.20125 230.06757813 371.87125 274.61757813 371.53125 320.51757812 C366.25125 320.51757812 360.97125 320.51757812 355.53125 320.51757812 C355.53125 272.33757812 355.53125 224.15757812 355.53125 174.51757812 C353.55125 173.85757813 351.57125 173.19757813 349.53125 172.51757812 C347.93887699 171.71583759 346.36998607 170.86574732 344.828125 169.97070312 C343.94342529 169.4625708 343.05872559 168.95443848 342.1472168 168.4309082 C341.20144775 167.88200928 340.25567871 167.33311035 339.28125 166.76757812 C330.65996955 161.82613793 321.98009468 157.01871369 313.21875 152.33007812 C303.77627767 147.27079856 294.37976407 142.14230395 285.03027344 136.91357422 C279.93100185 134.06503622 274.82447071 131.22953508 269.71875 128.39257812 C268.0015979 127.43834961 268.0015979 127.43834961 266.24975586 126.46484375 C257.89295738 121.82260549 249.52718405 117.19677252 241.15625 112.58007812 C240.55690643 112.24951416 239.95756287 111.9189502 239.34005737 111.57836914 C233.22193773 108.20424098 227.10280856 104.83194913 220.98239136 101.46199036 C219.13563782 100.44491538 217.28924108 99.42719488 215.44287109 98.40942383 C213.02289643 97.07564254 210.60118605 95.74509134 208.17822266 94.41674805 C202.18495219 91.1252914 196.23212 87.77934777 190.328125 84.33007812 C189.17181772 83.6605066 188.01524715 82.99138954 186.85839844 82.32275391 C184.69127623 81.06554315 182.5325287 79.79374818 180.38378906 78.50537109 C179.42182617 77.94994629 178.45986328 77.39452148 177.46875 76.82226562 C176.21384766 76.07952393 176.21384766 76.07952393 174.93359375 75.32177734 C172.5350181 74.27098607 172.5350181 74.27098607 170.0690918 75.19189453 C169.231604 75.62937012 168.39411621 76.0668457 167.53125 76.51757812 C166.65057861 76.96423828 165.76990723 77.41089844 164.86254883 77.87109375 C163.91404053 78.38349609 162.96553223 78.89589844 161.98828125 79.42382812 C160.39222046 80.28415649 160.39222046 80.28415649 158.76391602 81.16186523 C157.63526123 81.77425049 156.50660645 82.38663574 155.34375 83.01757812 C154.16012644 83.65772882 152.9764508 84.29778325 151.79272461 84.93774414 C143.17086439 89.60460636 134.58684125 94.33629668 126.03027344 99.12158203 C120.93100185 101.97012003 115.82447071 104.80562117 110.71875 107.64257812 C109.57398193 108.27873047 108.42921387 108.91488281 107.24975586 109.5703125 C95.24355037 116.23981238 83.21665906 122.87170903 71.18847656 129.50146484 C65.73781844 132.50596065 60.28859521 135.51305711 54.83926392 138.5199585 C53.03504757 139.51548271 51.23078871 140.51092982 49.42651367 141.50634766 C42.64210025 145.24930609 35.85788375 148.99262086 29.07420349 152.73690796 C25.99421228 154.43682153 22.9138862 156.13612208 19.83276367 157.83398438 C14.32796231 160.86781397 8.82644041 163.90714263 3.3359375 166.96679688 C2.40015869 167.48653076 1.46437988 168.00626465 0.50024414 168.54174805 C-1.22122706 169.49812094 -2.94091129 170.45772036 -4.65844727 171.42114258 C-5.40408936 171.83452881 -6.14973145 172.24791504 -6.91796875 172.67382812 C-7.88222778 173.21233398 -7.88222778 173.21233398 -8.8659668 173.76171875 C-10.46875 174.51757812 -10.46875 174.51757812 -12.46875 174.51757812 C-12.46875 249.09757812 -12.46875 323.67757812 -12.46875 400.51757812 C-7.18875 400.51757812 -1.90875 400.51757812 3.53125 400.51757812 C3.52014694 397.98548172 3.50904388 395.45338531 3.49760437 392.84455872 C3.39552043 369.02071907 3.32106276 345.1969082 3.27218914 321.37289906 C3.24639351 309.12375575 3.21121679 296.87477281 3.15405273 284.62573242 C3.10425965 273.95105738 3.07196889 263.27649845 3.06080753 252.6017105 C3.05428189 246.94799439 3.03891618 241.29461051 3.00259972 235.64100075 C2.96870517 230.32141305 2.95818392 225.00229498 2.96571159 219.68260956 C2.96433413 217.7286518 2.95436287 215.77467862 2.93522263 213.82081413 C2.91038657 211.15513515 2.91630984 208.49123489 2.92997742 205.82551575 C2.91541321 205.05021745 2.900849 204.27491915 2.88584346 203.47612697 C2.93992946 199.58026605 3.40162587 197.69125031 5.75574207 194.53717327 C8.7236883 192.37755061 9.93793387 191.89310421 13.54064941 191.89611816 C15.01680473 191.87930496 15.01680473 191.87930496 16.52278137 191.8621521 C17.59098618 191.87541534 18.65919098 191.88867859 19.75976562 191.90234375 C21.46056526 191.89402023 21.46056526 191.89402023 23.19572449 191.88552856 C26.94341297 191.87371874 30.68989608 191.89802322 34.4375 191.92382812 C37.04154403 191.92553891 39.64558979 191.92547388 42.24963379 191.92370605 C47.70709864 191.92375959 53.16421682 191.94349189 58.62158203 191.97558594 C64.92521607 192.01247729 71.22839613 192.02126114 77.53212404 192.01428843 C83.60357277 192.00797647 89.67484127 192.01896403 95.7462616 192.03825378 C98.32666769 192.04528857 100.90708751 192.04840774 103.48750305 192.04756165 C107.0928327 192.04935792 110.69751632 192.07072667 114.30273438 192.09765625 C115.37093918 192.09472565 116.43914398 192.09179504 117.53971863 192.08877563 C126.66308528 192.19399659 126.66308528 192.19399659 130.53125 195.51757812 C131.77350295 198.00208402 131.65433537 199.64774205 131.65150452 202.42764282 C131.65356651 203.98417824 131.65356651 203.98417824 131.65567017 205.57215881 C131.65207489 206.7151091 131.64847961 207.85805939 131.64477539 209.03564453 C131.64492142 210.23562576 131.64506744 211.43560699 131.6452179 212.67195129 C131.64463957 215.96720674 131.63961565 219.26239995 131.63264394 222.55764437 C131.62640327 225.99963988 131.62580604 229.44163618 131.62461853 232.88363647 C131.62150732 239.40365748 131.61329676 245.92366176 131.60326904 252.4436754 C131.59210138 259.86558551 131.58659581 267.2874964 131.58157361 274.70941281 C131.57111398 289.9788112 131.55331776 305.24819186 131.53125 320.51757812 C126.25125 320.51757812 120.97125 320.51757812 115.53125 320.51757812 C115.53125 283.55757813 115.53125 246.59757812 115.53125 208.51757812 C83.85125 208.51757812 52.17125 208.51757812 19.53125 208.51757812 C19.53125 271.87757813 19.53125 335.23757813 19.53125 400.51757812 C24.81125 400.51757812 30.09125 400.51757812 35.53125 400.51757812 C35.53125 405.79757812 35.53125 411.07757813 35.53125 416.51757812 C34.29985291 416.52122375 33.06845581 416.52486938 31.79974365 416.52862549 C20.20450845 416.56553973 8.6095397 416.62327332 -2.98549271 416.70148087 C-8.94688277 416.74101838 -14.90812373 416.77317614 -20.86962891 416.78857422 C-26.62102401 416.80369936 -32.37200935 416.83807139 -38.12322235 416.88588715 C-40.31925651 416.90074371 -42.51534916 416.90862158 -44.71143341 416.90946198 C-47.78365454 416.91182049 -50.85473295 416.93881071 -53.92675781 416.97167969 C-54.83809982 416.96664932 -55.74944183 416.96161896 -56.68840027 416.95643616 C-61.70187634 417.01873518 -61.70187634 417.01873518 -66.03387451 419.36419678 C-68.00380898 422.32056489 -68.04921138 424.03480986 -67.46875 427.51757812 C-66.09178205 429.85736167 -66.09178205 429.85736167 -63.46875 431.51757812 C-60.29329291 432.12577505 -57.15209216 432.08127955 -53.92675781 432.06347656 C-52.96057022 432.07381424 -51.99438263 432.08415192 -50.99891663 432.09480286 C-47.80640054 432.12429269 -44.61451674 432.12573136 -41.421875 432.12695312 C-39.20797512 432.14193056 -36.99408643 432.15865677 -34.7802124 432.17706299 C-28.953954 432.22079752 -23.12784634 432.24074924 -17.30145264 432.25579834 C-11.35582544 432.27534733 -5.41036156 432.31731984 0.53515625 432.35742188 C12.20047054 432.43279021 23.86574839 432.48304166 35.53125 432.51757812 C35.53125 437.79757812 35.53125 443.07757813 35.53125 448.51757812 C22.23994368 448.61034633 8.94871467 448.68137808 -4.34284973 448.72482681 C-10.51497857 448.7456823 -16.68688555 448.77396334 -22.85888672 448.81933594 C-28.81760839 448.86286544 -34.77611693 448.88673056 -40.73498535 448.8970871 C-43.00593418 448.90446563 -45.27687163 448.9188742 -47.54772949 448.94049835 C-50.73389701 448.96962598 -53.91918905 448.97353011 -57.10546875 448.97167969 C-58.03983261 448.98606079 -58.97419647 449.00044189 -59.93687439 449.01525879 C-67.04671664 448.97071443 -72.32179721 447.27527369 -77.7109375 442.55273438 C-78.24976562 441.90175781 -78.78859375 441.25078125 -79.34375 440.58007812 C-79.89804688 439.93167969 -80.45234375 439.28328125 -81.0234375 438.61523438 C-85.50287097 432.11400256 -85.14338728 425.14616896 -84.46875 417.51757812 C-82.78789417 410.85798479 -78.00496678 406.33210365 -72.46875 402.51757812 C-58.8370313 397.06489064 -43.15056036 400.51757812 -28.46875 400.51757812 C-28.79875 329.56757813 -29.12875 258.61757813 -29.46875 185.51757812 C-37.05875 189.80757812 -44.64875 194.09757813 -52.46875 198.51757812 C-57.08663618 200.82652121 -57.08663618 200.82652121 -60.46875 200.89257812 C-61.12875 200.9209375 -61.78875 200.94929687 -62.46875 200.97851562 C-65.63842321 200.248005 -66.54827409 199.17764365 -68.46875 196.51757812 C-69.08452273 192.93986881 -69.02885041 189.39038541 -69 185.76757812 C-69.0038269 184.71731445 -69.00765381 183.66705078 -69.01159668 182.58496094 C-69.01431696 180.36587566 -69.00694777 178.14675838 -68.99023438 175.92773438 C-68.96882745 172.52987217 -68.99003325 169.13412451 -69.015625 165.73632812 C-69.01298175 163.58007345 -69.00785682 161.4238201 -69 159.26757812 C-69.00809692 158.25083008 -69.01619385 157.23408203 -69.02453613 156.18652344 C-68.93156501 149.19794653 -68.93156501 149.19794653 -66.79272461 146.05371094 C-64.15724887 144.31167781 -61.53257577 142.69666344 -58.75390625 141.18945312 C-57.03167847 140.24779297 -57.03167847 140.24779297 -55.2746582 139.28710938 C-54.02694631 138.61376394 -52.77914134 137.94059095 -51.53125 137.26757812 C-50.24726909 136.56904067 -48.96366451 135.86981107 -47.68041992 135.16992188 C-45.67758183 134.07781099 -43.67440862 132.98635661 -41.66975403 131.89758301 C-36.8210248 129.26300296 -31.99209815 126.59453843 -27.171875 123.90820312 C-25.83588696 123.16498362 -24.49986855 122.4218187 -23.16381836 121.67871094 C-21.22810705 120.60194904 -19.29301299 119.52415848 -17.3598938 118.44274902 C-15.57148377 117.44297581 -13.78024607 116.44846178 -11.98828125 115.45507812 C-10.96839111 114.88660156 -9.94850098 114.318125 -8.89770508 113.73242188 C-6.46875 112.51757812 -6.46875 112.51757812 -4.46875 112.51757812 C-4.46875 91.39757812 -4.46875 70.27757812 -4.46875 48.51757812 C-6.44875 48.18757813 -8.42875 47.85757813 -10.46875 47.51757812 C-13.09068068 43.5846821 -12.79268556 40.18229937 -12.8046875 35.61523438 C-12.8146727 34.30406898 -12.8146727 34.30406898 -12.82485962 32.96641541 C-12.83498288 31.11801254 -12.83967674 29.26957314 -12.83935547 27.42114258 C-12.84372854 24.59395125 -12.88005002 21.7683213 -12.91796875 18.94140625 C-12.92383701 17.14518763 -12.92780634 15.3489616 -12.9296875 13.55273438 C-12.94405853 12.70783951 -12.95842957 11.86294464 -12.97323608 10.9924469 C-12.96708282 10.20160202 -12.96092957 9.41075714 -12.95458984 8.59594727 C-12.95743988 7.90328262 -12.96028992 7.21061798 -12.96322632 6.4969635 C-11.30121786 -0.15604519 -5.81676043 -0.0587109 0 0 Z " fill="#010000" transform="translate(84.46875,-0.517578125)"/>
<path d="M0 0 C1.93663765 -0.01062721 1.93663765 -0.01062721 3.91239929 -0.02146912 C5.3361057 -0.01917545 6.75981177 -0.01666578 8.18351746 -0.01396179 C9.68849948 -0.01831084 11.19347929 -0.02349463 12.69845581 -0.02944946 C16.78123628 -0.04283202 20.86392414 -0.04341882 24.94672227 -0.04088616 C28.35858233 -0.03981566 31.77042371 -0.04470202 35.18227977 -0.04949158 C43.2347899 -0.06058483 51.28725338 -0.06102562 59.33976746 -0.05497742 C67.63709867 -0.04894094 75.93426017 -0.06124074 84.23156244 -0.08254749 C91.36295043 -0.10018454 98.49428451 -0.10616141 105.6256935 -0.10290974 C109.8814888 -0.10109963 114.13716312 -0.10370558 118.39293861 -0.11762428 C122.39768426 -0.1302318 126.40216627 -0.12823104 130.40690804 -0.11521339 C131.87259257 -0.11285417 133.33829583 -0.11555877 134.80395889 -0.12383652 C144.24383589 -0.17328522 152.43850976 -0.11234133 159.85612488 6.44819641 C160.79198425 7.24290344 160.79198425 7.24290344 161.74674988 8.05366516 C168.72580105 16.33762296 168.19658424 24.88629264 168.13737488 35.13179016 C168.1400739 36.78031645 168.14395972 38.42884118 168.14897156 40.07736206 C168.15484904 43.52282452 168.14636175 46.9678705 168.12760925 50.4132843 C168.10483838 54.80907895 168.11794154 59.2038955 168.14189911 63.5996542 C168.15642017 67.00139607 168.1517221 70.40290978 168.14138794 73.80465889 C168.13873709 75.42442506 168.14193202 77.04421257 168.15130615 78.66395378 C168.19574447 88.50017551 168.06680116 96.94843647 161.45768738 104.81929016 C160.72292175 105.43932922 159.98815613 106.05936829 159.23112488 106.69819641 C158.5015155 107.33628235 157.77190613 107.97436829 157.02018738 108.63179016 C152.27430327 111.83411002 147.69355608 112.51135157 142.05403137 112.52812195 C140.75315079 112.53665192 139.4522702 112.54518188 138.11196899 112.55397034 C136.68244922 112.55327141 135.25292954 112.5523484 133.82341003 112.55122375 C132.30842763 112.55721226 130.79344827 112.56401855 129.2784729 112.57157898 C125.17303368 112.58921244 121.06767789 112.59393321 116.96220446 112.59521055 C114.39484704 112.5966341 111.82751071 112.60090753 109.26015854 112.60620499 C100.29669096 112.62469578 91.33328278 112.6328767 82.36979675 112.63130188 C74.02525578 112.63010041 65.68097344 112.65120611 57.3364979 112.68278921 C50.1626259 112.70897046 42.98883827 112.71966842 35.81491888 112.71839106 C31.5345006 112.71788201 27.25431232 112.72353354 22.9739418 112.74474716 C18.94696695 112.76416111 14.92044078 112.76423274 10.89344978 112.7497139 C9.41969584 112.74762866 7.94591357 112.75230971 6.47220802 112.76443481 C-2.95631519 112.83695527 -9.53449471 112.50301265 -16.85481262 106.11225891 C-17.48645325 105.37749329 -18.11809387 104.64272766 -18.76887512 103.88569641 C-19.4159845 103.15608704 -20.06309387 102.42647766 -20.72981262 101.67475891 C-24.18668933 96.65985327 -24.6491883 91.80306902 -24.68440247 85.82173157 C-24.69111969 85.10218796 -24.69783691 84.38264435 -24.70475769 83.64129639 C-24.72365832 81.27737911 -24.72765772 78.91374691 -24.72981262 76.54975891 C-24.73624573 74.89597968 -24.74297446 73.24220157 -24.74998474 71.58842468 C-24.7619374 68.12694156 -24.76566761 64.66555808 -24.76448059 61.20405579 C-24.76427744 56.78351591 -24.7915846 52.36361916 -24.82602501 47.94323158 C-24.84833632 44.52870284 -24.85231685 41.11432789 -24.85126114 37.69973373 C-24.85361053 36.07074644 -24.86239658 34.44175448 -24.87792587 32.81283951 C-25.02768469 15.48305782 -25.02768469 15.48305782 -18.21028137 7.79975891 C-17.09459778 6.85229797 -17.09459778 6.85229797 -15.95637512 5.88569641 C-15.21516418 5.23858704 -14.47395325 4.59147766 -13.71028137 3.92475891 C-9.23761295 0.71167839 -5.45941842 0.01000088 0 0 Z " fill="#000000" transform="translate(256.3938751220703,191.7393035888672)"/>
<path d="M0 0 C31.68 0 63.36 0 96 0 C96 36.96 96 73.92 96 112 C98.64 112 101.28 112 104 112 C104 117.28 104 122.56 104 128 C102.02966797 128.02126953 102.02966797 128.02126953 100.01953125 128.04296875 C98.28381949 128.08987988 96.54814348 128.13812721 94.8125 128.1875 C93.94818359 128.19330078 93.08386719 128.19910156 92.19335938 128.20507812 C88.13861449 128.34489691 85.70645983 128.49568354 82.3515625 130.890625 C78.96486525 135.36871638 75.72673608 139.92470387 72.5625 144.5625 C71.12921441 146.64344145 69.69561508 148.72416684 68.26171875 150.8046875 C67.5454834 151.8472168 66.82924805 152.88974609 66.09130859 153.96386719 C63.0434043 158.38877238 59.96108084 162.78917539 56.875 167.1875 C55.7304144 168.82157651 54.58588309 170.45569106 53.44140625 172.08984375 C50.49528699 176.29414011 47.54742673 180.49721337 44.59838867 184.69946289 C43.41975599 186.38274048 42.24407183 188.06808698 41.0715332 189.75561523 C38.31381001 193.72291443 35.52775833 197.65685956 32.640625 201.53125 C32.12008545 202.24506836 31.5995459 202.95888672 31.06323242 203.69433594 C30.09683868 205.01807684 29.11372551 206.32985256 28.1105957 207.62597656 C25.78263662 210.85639856 24.65643182 213.07518995 24.9921875 217.11328125 C25.73122015 220.8250671 27.24031227 223.43038418 29.5625 226.4375 C33 230.96780684 33 230.96780684 33 232 C27.39 232 21.78 232 16 232 C16 229.36 16 226.72 16 224 C14.77082352 224.01110306 13.54164703 224.02220612 12.27522278 224.03364563 C0.69525593 224.13497405 -10.88462105 224.20994278 -22.46493053 224.25906086 C-28.41862136 224.28516194 -34.3719545 224.32057029 -40.32543945 224.37719727 C-46.0701938 224.43149735 -51.81460395 224.46141668 -57.55959511 224.47438622 C-59.75210299 224.48362958 -61.94459188 224.50167971 -64.13695335 224.52865028 C-67.20654479 224.56491304 -70.27471148 224.56994638 -73.34448242 224.56762695 C-74.70610252 224.59459152 -74.70610252 224.59459152 -76.0952301 224.62210083 C-80.55862439 224.58557354 -82.41625213 224.44727291 -86.06440735 221.65202332 C-88 219 -88 219 -88.625 216 C-87.75991233 211.84757918 -86.36227833 210.57620813 -83 208 C-79.77744708 207.29008577 -76.63266118 207.36725626 -73.34448242 207.43237305 C-72.3781488 207.43164291 -71.41181519 207.43091278 -70.41619873 207.43016052 C-67.22871365 207.43363822 -64.04269789 207.47250925 -60.85546875 207.51171875 C-58.64301858 207.52104619 -56.43055807 207.52816263 -54.21809387 207.53315735 C-48.39978436 207.55223233 -42.58210064 207.60133835 -36.76403809 207.65667725 C-30.82520005 207.7078584 -24.88626072 207.73066903 -18.94726562 207.75585938 C-7.2979024 207.80945586 4.35099673 207.89477544 16 208 C16 202.72 16 197.44 16 192 C10.72 192 5.44 192 0 192 C0 128.64 0 65.28 0 0 Z " fill="#F1D0A4" transform="translate(104,208)"/>
<path d="M0 0 C1.01434992 -0.00445784 2.02869984 -0.00891569 3.07378763 -0.01350862 C4.75802948 -0.01323207 4.75802948 -0.01323207 6.47629642 -0.01294994 C8.2558138 -0.01846498 8.2558138 -0.01846498 10.07128102 -0.02409142 C13.37479904 -0.03323036 16.67826733 -0.03783063 19.98179328 -0.04048073 C23.54097352 -0.0443796 27.10013931 -0.0539585 30.65931034 -0.0626936 C39.2622365 -0.08247409 47.86516386 -0.09252809 56.46810707 -0.10142139 C60.51971726 -0.10580336 64.57132614 -0.11117056 68.6229353 -0.11641026 C82.09358893 -0.13342725 95.56424174 -0.14791977 109.03490448 -0.155159 C112.53221926 -0.1570689 116.02953404 -0.15898923 119.52684879 -0.16094494 C120.83071344 -0.16167055 120.83071344 -0.16167055 122.16091878 -0.16241082 C136.2310293 -0.17070481 150.30105461 -0.19602892 164.37112796 -0.22852562 C178.81845464 -0.26162121 193.26573809 -0.27961018 207.71310288 -0.28280324 C215.82387193 -0.28496647 223.93451691 -0.2936872 232.04524899 -0.31926441 C238.95569023 -0.34100595 245.86597727 -0.34900507 252.77644884 -0.33929763 C256.29988467 -0.33476231 259.8230026 -0.3365936 263.34639454 -0.35605907 C267.17424962 -0.3770229 271.00167036 -0.36667476 274.82956791 -0.35352612 C275.93231932 -0.36449536 277.03507072 -0.37546461 278.17123884 -0.38676625 C289.6450315 -0.29189873 298.88895709 3.17698527 307.22435856 11.13422108 C315.93905727 20.26308369 318.84156997 30.25555545 318.74193668 42.67328358 C318.7524506 44.31704975 318.7524506 44.31704975 318.76317692 45.99402332 C318.78064734 49.58268754 318.76917252 53.17055015 318.75560856 56.75922108 C318.7583066 59.27305724 318.76219162 61.78689238 318.76720524 64.30072498 C318.77308548 69.5558523 318.76497191 74.81077485 318.74584293 80.0658617 C318.72407954 86.113949 318.73113303 92.16149664 318.75314856 98.20957088 C318.77359123 104.06315795 318.77129613 109.91654239 318.75962162 115.77014637 C318.75696529 118.24512274 318.76018532 120.72011301 318.76953983 123.19507313 C318.77977032 126.66213216 318.76411233 130.12817468 318.74193668 133.59515858 C318.75003361 134.60431324 318.75813053 135.6134679 318.76647282 136.65320301 C318.63468746 147.85142814 314.96895837 157.02156108 307.22435856 165.13422108 C297.78252217 174.14769438 287.60845551 176.74435346 274.81179142 176.64888477 C273.60943973 176.6558303 272.40708805 176.66277583 271.16830146 176.66993183 C267.86182895 176.68496685 264.55626579 176.68230295 261.24983597 176.6717788 C257.67249274 176.66474784 254.0952388 176.68081351 250.5179224 176.69377613 C243.5239258 176.71535186 236.53009231 176.71530662 229.5360734 176.70715059 C223.85272414 176.70083909 218.16942228 176.70199811 212.48607349 176.70842266 C211.67582665 176.70932432 210.86557981 176.71022597 210.03078004 176.71115495 C208.38462456 176.7130062 206.73846909 176.71486877 205.09231363 176.71674251 C189.67937612 176.73329662 174.26653033 176.72462003 158.85359834 176.70775693 C144.75086801 176.69304132 130.64835036 176.70771869 116.5456474 176.73652709 C102.05510276 176.76590707 87.56465634 176.7768988 73.07408321 176.76734489 C71.43597183 176.76632235 69.79786044 176.76532774 68.15974903 176.76436138 C67.35381315 176.76388499 66.54787726 176.7634086 65.71751908 176.76291778 C60.03804029 176.76075292 54.35865451 176.77056073 48.67919636 176.78513241 C41.76252719 176.80263172 34.84612982 176.80257218 27.92947145 176.77978075 C24.40059468 176.76862008 20.87219722 176.76551692 17.34334087 176.78408146 C13.52031642 176.80393536 9.69804529 176.7851446 5.87502384 176.76241016 C4.75704352 176.77424589 3.63906319 176.78608162 2.48720467 176.79827601 C-5.03223195 176.70704126 -5.03223195 176.70704126 -8.90189457 173.72534561 C-9.82939927 172.44273897 -9.82939927 172.44273897 -10.77564144 171.13422108 C-11.31374447 170.44578114 -11.8518475 169.75734119 -12.40625668 169.04803944 C-12.87748959 168.36362782 -13.3487225 167.67921619 -13.83423519 166.97406483 C-14.64924496 165.79940662 -14.64924496 165.79940662 -15.48071957 164.60101795 C-16.05241879 163.76634998 -16.624118 162.93168201 -17.21314144 162.07172108 C-18.46170394 160.26824191 -19.71040574 158.46485916 -20.95923519 156.66156483 C-21.59329281 155.74230213 -22.22735043 154.82303944 -22.88062191 153.8759203 C-25.82583962 149.61480269 -28.80159474 145.37524023 -31.77564144 141.13422108 C-32.93587291 139.47541952 -34.09602886 137.81656514 -35.25611019 136.15765858 C-37.64723688 132.74099976 -40.04663109 129.33033683 -42.45142269 125.92328358 C-49.11711698 116.46702988 -55.72267833 106.99877812 -61.77564144 97.13422108 C-62.1594598 96.57557362 -62.54327816 96.01692616 -62.93872738 95.44134998 C-64.90257825 92.41997633 -65.76852063 90.34143674 -65.89282894 86.72406483 C-64.40768948 81.95188593 -61.92924044 78.62425455 -58.90064144 74.69672108 C-57.7024375 73.09243816 -56.5058495 71.48694719 -55.31079769 69.88031483 C-54.71154476 69.08093494 -54.11229183 68.28155506 -53.49487972 67.45795155 C-51.02251917 64.11629751 -48.67314616 60.69763256 -46.33814144 57.25922108 C-40.50019742 48.70610353 -34.55644796 40.22870131 -28.60913754 31.75140858 C-26.7299869 29.06905241 -24.85571028 26.38334885 -22.98267269 23.69672108 C-22.3617474 22.80694569 -21.74082211 21.9171703 -21.10108089 21.00043201 C-19.9227882 19.31170866 -18.74547059 17.62230434 -17.56934261 15.93207264 C-14.91607603 12.13276262 -12.23702889 8.35402844 -9.49439144 4.61859608 C-9.01937191 3.97116444 -8.54435238 3.3237328 -8.05493832 2.65668201 C-5.66937318 -0.1823226 -3.52245423 0.00715679 0 0 Z M-7.02385902 27.49832821 C-7.32490339 28.12959252 -7.62594775 28.76085682 -7.93611467 29.41125035 C-8.99236641 31.57900828 -10.32149204 33.46864133 -11.76392269 35.39593983 C-12.54090043 36.53634523 -13.31568782 37.67824642 -14.08814144 38.82172108 C-15.00403477 40.16469672 -15.92074246 41.50711725 -16.83814144 42.84906483 C-17.31122738 43.54113026 -17.78431332 44.23319569 -18.27173519 44.9462328 C-20.43875664 48.09896757 -22.63013485 51.23436556 -24.82520199 54.36761951 C-25.99838412 56.04234067 -27.16913112 57.71877039 -28.33740902 59.39691639 C-31.45421065 63.8655786 -34.61576902 68.29251592 -37.84986019 72.67718983 C-38.50687923 73.58050037 -39.16389828 74.48381092 -39.84082699 75.41449451 C-41.10737077 77.15393459 -42.3883262 78.88299372 -43.68506527 80.60004139 C-44.25120541 81.38346912 -44.81734554 82.16689686 -45.40064144 82.97406483 C-45.90853207 83.65847645 -46.41642269 84.34288807 -46.93970394 85.04803944 C-48.03941271 87.18133317 -48.03941271 87.18133317 -47.06958675 89.6752367 C-45.95830749 91.78708665 -44.84145045 93.70628633 -43.44751644 95.63812733 C-42.98490414 96.28563953 -42.52229183 96.93315174 -42.04566097 97.60028553 C-41.54405453 98.29210926 -41.04244808 98.98393299 -40.52564144 99.69672108 C-39.43399166 101.22240229 -38.34286706 102.74845938 -37.25220394 104.27484608 C-36.68147152 105.07084217 -36.1107391 105.86683826 -35.52271175 106.68695545 C-32.61978807 110.75332032 -29.76133895 114.8505945 -26.90064144 118.94672108 C-25.72360365 120.62904461 -24.54651989 122.31133598 -23.36939144 123.99359608 C-20.93000502 127.48186527 -18.49291778 130.97172972 -16.05689144 134.46234608 C-15.13819271 135.77755238 -15.13819271 135.77755238 -14.20093441 137.1193285 C-13.04801677 138.76990506 -11.89592123 140.42105634 -10.74487972 142.07294178 C-9.69050388 143.58194361 -8.61291689 145.07506929 -7.50965881 146.54870987 C-5.77564144 149.13422108 -5.77564144 149.13422108 -4.63210106 151.9578228 C-2.90138083 155.51674408 -1.2062883 158.14040876 2.22435856 160.13422108 C10.7497933 162.37303959 20.05381568 161.56223129 28.78466129 161.44647694 C31.53973482 161.44382152 34.29466886 161.4577034 37.04970646 161.4708147 C43.75122659 161.49272128 50.45121236 161.45623724 57.15248352 161.40010052 C64.96138335 161.33699179 72.76998246 161.33290765 80.57909644 161.33142633 C94.51627425 161.32686562 108.45275227 161.27031258 122.38964176 161.18378162 C135.90273331 161.09994028 149.41535226 161.05033807 162.92870426 161.04022694 C163.7608596 161.03959859 164.59301494 161.03897024 165.45038711 161.03832286 C166.69649497 161.03739643 166.69649497 161.03739643 167.96777672 161.03645128 C169.64055853 161.03520494 171.31334033 161.03394804 172.98612213 161.03268051 C174.22366392 161.03175428 174.22366392 161.03175428 175.48620656 161.03080934 C188.37802918 161.01982449 201.26977724 160.97865079 214.16152058 160.93392647 C218.82799186 160.91805952 223.49445172 160.90638766 228.16094165 160.89772087 C235.56500738 160.88377881 242.96877073 160.85668676 250.37266307 160.80287176 C253.75413557 160.77851274 257.13508747 160.76231029 260.51668453 160.75908375 C264.18753436 160.75431904 267.85739322 160.72495609 271.52805424 160.68925953 C272.58973818 160.69340758 273.65142212 160.69755563 274.7452783 160.70182937 C282.5121797 160.58633933 288.74970129 159.05187222 294.78295231 153.98578358 C295.40299137 153.25101795 296.02303043 152.51625233 296.66185856 151.75922108 C297.2999445 151.0296117 297.93803043 150.30000233 298.59545231 149.54828358 C302.60317091 143.60878695 302.52136387 137.66467325 302.5148859 130.75775623 C302.52160313 129.72609837 302.52832035 128.6944405 302.53524113 127.63152027 C302.5542041 124.22872542 302.55814439 120.82612795 302.56029606 117.42328358 C302.56672476 115.05205677 302.57345317 112.68083075 302.58046818 110.3096056 C302.59243641 105.34162018 302.59614942 100.37370427 302.59496403 95.40570545 C302.59476078 89.04815343 302.62207179 82.69104811 302.65650845 76.33360195 C302.67877331 71.43674145 302.6828017 66.53998856 302.68174458 61.64308262 C302.6841008 59.29958398 302.69292549 56.95608238 302.70840931 54.61263371 C302.7280617 51.33126464 302.72223362 48.05086045 302.7101984 44.76947498 C302.72143742 43.80713444 302.73267643 42.84479389 302.74425602 41.85329151 C302.67230916 34.11192127 300.54741119 27.88124688 294.97435856 22.32172108 C294.45357731 21.77902576 293.93279606 21.23633045 293.39623356 20.67718983 C286.62289924 15.86519872 279.68041327 15.68378031 271.66849613 15.67252064 C269.94866755 15.6528005 269.94866755 15.6528005 268.19409496 15.63268197 C264.36131245 15.59269398 260.52873656 15.57402211 256.69579411 15.5556078 C253.94399909 15.53345273 251.19224666 15.50709738 248.44048405 15.48126698 C240.19313833 15.40794127 231.94573996 15.36386275 223.6981692 15.32508677 C221.36701623 15.31393698 219.03586849 15.30201859 216.70472074 15.28982878 C202.21109824 15.2141367 187.71746634 15.1480153 173.22369003 15.11064434 C169.87210591 15.10185621 166.52052208 15.09297104 163.16893864 15.08392811 C162.33598531 15.08168996 161.50303199 15.0794518 160.64483766 15.07714583 C147.14685763 15.03917164 133.65006184 14.93946963 120.1526356 14.81452261 C106.27915926 14.68715132 92.40628909 14.61654802 78.53222972 14.60088265 C70.74831641 14.59065536 62.96625756 14.55557986 55.18292141 14.45657444 C48.55571929 14.37240894 41.93075181 14.3396396 35.3030568 14.37316082 C31.92268547 14.38869014 28.55076013 14.37214065 25.17044353 14.3057642 C5.46972198 13.82563041 5.46972198 13.82563041 -7.02385902 27.49832821 Z " fill="#000000" transform="translate(193.77564144134521,335.86577892303467)"/>
<path d="M0 0 C2.88797284 1.34006117 5.69740311 2.77060173 8.50488281 4.27246094 C9.6337793 4.87590332 10.76267578 5.4793457 11.92578125 6.10107422 C13.1423822 6.75561855 14.35885034 7.4104098 15.57519531 8.06542969 C16.50724792 8.56571686 16.50724792 8.56571686 17.45812988 9.07611084 C26.79360246 14.08863159 36.0492035 19.22826093 45.25439453 24.47680664 C52.02133955 28.3278992 58.84372758 32.06383392 65.70019531 35.75292969 C73.54571998 39.97456915 81.33387816 44.28064962 89.07519531 48.69042969 C98.42890806 54.01591885 107.8752367 59.15137103 117.36206055 64.23535156 C125.68650313 68.69827274 133.95764404 73.24671676 142.20117188 77.85693359 C168.95354468 92.80125439 195.78450988 107.60493762 222.70019531 122.25292969 C222.70019531 129.51292969 222.70019531 136.77292969 222.70019531 144.25292969 C219.03856223 142.78827645 215.77973858 141.30698518 212.33300781 139.45214844 C211.29466797 138.89398438 210.25632812 138.33582031 209.18652344 137.76074219 C207.52266602 136.8596875 207.52266602 136.8596875 205.82519531 135.94042969 C204.08786133 135.00263672 204.08786133 135.00263672 202.31542969 134.04589844 C193.9505948 129.51985011 185.66234645 124.86558934 177.39916992 120.15673828 C169.01602286 115.39461996 160.53548159 110.82409688 152.0378418 106.27026367 C143.71357851 101.80739368 135.44258781 97.25905382 127.19921875 92.64892578 C122.09994716 89.80038778 116.99341603 86.96488665 111.88769531 84.12792969 C110.17054321 83.17370117 110.17054321 83.17370117 108.41870117 82.20019531 C96.41249568 75.53069543 84.38560437 68.89879878 72.35742188 62.26904297 C66.90575914 59.2639934 61.45552637 56.25635204 56.00518799 53.24890137 C53.01294344 51.59781942 50.02063641 49.94685072 47.02832031 48.29589844 C46.43431427 47.96816437 45.84030823 47.6404303 45.228302 47.30276489 C41.40250841 45.19198888 37.57654862 43.08151438 33.75048828 40.97122192 C31.1170682 39.51872516 28.48370301 38.06612889 25.8503418 36.61352539 C24.60443813 35.92630138 23.35850806 35.23912521 22.11254883 34.55200195 C20.37607073 33.59436266 18.63969405 32.63653946 16.90332031 31.67871094 C15.83662109 31.09428223 14.76992188 30.50985352 13.67089844 29.90771484 C11.79437524 28.86242603 9.93135209 27.79217005 8.08886719 26.68798828 C6.92967773 25.99890381 6.92967773 25.99890381 5.74707031 25.29589844 C4.77785645 24.69878052 4.77785645 24.69878052 3.7890625 24.08959961 C-0.17972298 22.49995166 -3.28681147 22.82608116 -7.18286133 24.46777344 C-8.1818042 25.03625 -9.18074707 25.60472656 -10.20996094 26.19042969 C-11.91925781 27.14949219 -11.91925781 27.14949219 -13.66308594 28.12792969 C-14.8962167 28.83616231 -16.12928797 29.54449854 -17.36230469 30.25292969 C-18.6558151 30.98344446 -19.95010083 31.71258791 -21.24511719 32.44042969 C-23.93451378 33.95336243 -26.62048014 35.47213775 -29.30419922 36.99511719 C-34.846472 40.13445941 -40.4282399 43.2015137 -46.01046753 46.26904297 C-49.02548571 47.92688388 -52.03747921 49.59020278 -55.04980469 51.25292969 C-56.25812378 51.91962216 -57.46645711 52.58628884 -58.67480469 53.25292969 C-59.27292969 53.58292969 -59.87105469 53.91292969 -60.48730469 54.25292969 C-94.92480469 73.25292969 -94.92480469 73.25292969 -96.73722839 74.25288391 C-97.94582019 74.91969564 -99.15440784 75.58651489 -100.36299133 76.25334167 C-103.37983612 77.91785067 -106.39675251 79.58222962 -109.41381836 81.24633789 C-114.89897568 84.2719275 -120.38356202 87.29853164 -125.86553955 90.32987976 C-128.94744494 92.03402933 -132.02977655 93.73740686 -135.11230469 95.44042969 C-136.01858612 95.94118515 -136.01858612 95.94118515 -136.94317627 96.45205688 C-145.16347207 100.9922548 -153.40827648 105.48485148 -161.67480469 109.94042969 C-169.43453076 114.12368292 -177.13685037 118.39499999 -184.79980469 122.75292969 C-192.96565598 127.39486942 -201.17139025 131.95585762 -209.42480469 136.44042969 C-210.94557617 137.26994141 -210.94557617 137.26994141 -212.49707031 138.11621094 C-213.44517578 138.62925781 -214.39328125 139.14230469 -215.37011719 139.67089844 C-216.61946045 140.3480188 -216.61946045 140.3480188 -217.89404297 141.03881836 C-220.29648979 142.25125676 -222.8012262 143.25349829 -225.29980469 144.25292969 C-225.29980469 136.99292969 -225.29980469 129.73292969 -225.29980469 122.25292969 C-222.96917969 121.03605469 -220.63855469 119.81917969 -218.23730469 118.56542969 C-211.24336465 114.88487905 -204.35211986 111.04327562 -197.48730469 107.12792969 C-188.83160484 102.19503316 -180.09548184 97.43035452 -171.29980469 92.75292969 C-161.70032781 87.6469674 -152.18666231 82.41250775 -142.74121094 77.02636719 C-135.97556941 73.17646239 -129.15476014 69.44121178 -122.29980469 65.75292969 C-114.45428002 61.53129022 -106.66612184 57.22520975 -98.92480469 52.81542969 C-89.57109194 47.48994052 -80.1247633 42.35448835 -70.63793945 37.27050781 C-62.33540067 32.81932976 -54.08627736 28.28268567 -45.86474609 23.68408203 C-42.8084364 21.97876246 -39.74764084 20.28163518 -36.68652344 18.58496094 C-36.10420456 18.26195007 -35.52188568 17.93893921 -34.92192078 17.60614014 C-31.95492676 15.96039298 -28.98678454 14.31678934 -26.01635742 12.67724609 C-21.17963235 10.00032083 -16.35516789 7.32418343 -11.63574219 4.44433594 C-10.98959961 4.05391113 -10.34345703 3.66348633 -9.67773438 3.26123047 C-8.07615943 2.28288677 -6.48799417 1.28267731 -4.90136719 0.28027344 C-2.29980469 -0.74707031 -2.29980469 -0.74707031 0 0 Z " fill="#FC6F44" transform="translate(257.2998046875,33.7470703125)"/>
<path d="M0 0 C2.88797284 1.34006117 5.69740311 2.77060173 8.50488281 4.27246094 C9.6337793 4.87590332 10.76267578 5.4793457 11.92578125 6.10107422 C13.1423822 6.75561855 14.35885034 7.4104098 15.57519531 8.06542969 C16.50724792 8.56571686 16.50724792 8.56571686 17.45812988 9.07611084 C26.79360246 14.08863159 36.0492035 19.22826093 45.25439453 24.47680664 C52.02133955 28.3278992 58.84372758 32.06383392 65.70019531 35.75292969 C73.54571998 39.97456915 81.33387816 44.28064962 89.07519531 48.69042969 C98.42890806 54.01591885 107.8752367 59.15137103 117.36206055 64.23535156 C125.65991248 68.68401689 133.90492769 73.2174096 142.12207031 77.81298828 C147.02570238 80.55177823 151.93584131 83.27888097 156.8454895 86.00686646 C158.58045789 86.97111856 160.31501627 87.93610825 162.04956055 88.90112305 C168.91548111 92.71800446 175.79901456 96.50016084 182.70019531 100.25292969 C182.70019531 107.84292969 182.70019531 115.43292969 182.70019531 123.25292969 C178.83271413 121.70593721 175.37059515 120.08828057 171.71972656 118.12792969 C170.56529053 117.50917969 169.41085449 116.89042969 168.22143555 116.25292969 C166.98509108 115.58644426 165.74884653 114.91977348 164.51269531 114.25292969 C163.23416272 113.56537044 161.95559802 112.8778709 160.67700195 112.19042969 C151.7990675 107.41115963 142.9631159 102.56094644 134.16699219 97.6328125 C129.07985311 94.78715632 123.98308257 91.95878111 118.88769531 89.12792969 C117.74276611 88.49169678 116.59783691 87.85546387 115.41821289 87.19995117 C103.4122008 80.53047766 91.38544503 73.89871095 79.35742188 67.26904297 C73.30394993 63.93226589 67.25219489 60.59237619 61.20019531 57.25292969 C58.7978688 55.92737761 56.39552476 54.60185731 53.99316406 53.27636719 C53.39729996 52.94760086 52.80143585 52.61883453 52.18751526 52.28010559 C48.45222118 50.21926994 44.71663325 48.1589681 40.98074341 46.09921265 C39.70597156 45.39627717 38.43129249 44.69317341 37.15670776 43.98989868 C34.05778099 42.28014426 30.95764997 40.5726702 27.85449219 38.87060547 C22.55210846 35.95867404 17.27003487 33.02366293 12.05566406 29.95605469 C11.22252686 29.47185059 10.38938965 28.98764648 9.53100586 28.48876953 C8.03249086 27.61386405 6.54219697 26.72463795 5.06274414 25.81787109 C1.39594637 23.65203208 1.39594637 23.65203208 -2.72558594 23.72949219 C-3.99982422 24.48359375 -3.99982422 24.48359375 -5.29980469 25.25292969 C-6.63490692 25.93421786 -7.97241454 26.61080096 -9.31152344 27.28417969 C-10.87182961 28.10384484 -12.4303234 28.92696626 -13.98730469 29.75292969 C-14.83035156 30.19870361 -15.67339844 30.64447754 -16.54199219 31.10375977 C-24.31527563 35.23077488 -32.00920443 39.49292212 -39.68798828 43.79248047 C-44.82385497 46.66430273 -49.96857606 49.52022071 -55.11230469 52.37792969 C-56.25650879 53.01375977 -57.40071289 53.64958984 -58.57958984 54.3046875 C-69.96928075 60.631788 -81.37751805 66.92513182 -92.78848267 73.21376038 C-97.1053305 75.59322186 -101.41981095 77.97693875 -105.73339844 80.36230469 C-108.19288114 81.72195614 -110.65252364 83.08131805 -113.11230469 84.44042969 C-113.71631104 84.77417603 -114.32031738 85.10792236 -114.94262695 85.45178223 C-123.16310807 89.99206807 -131.40812052 94.48470995 -139.67480469 98.94042969 C-149.600976 104.29225577 -159.43159675 109.80202774 -169.23339844 115.37792969 C-170.0788623 115.85746094 -170.92432617 116.33699219 -171.79541016 116.83105469 C-173.49463438 117.79579264 -175.19150518 118.7646853 -176.88623047 119.73730469 C-177.69431152 120.19621094 -178.50239258 120.65511719 -179.33496094 121.12792969 C-180.05176025 121.53785156 -180.76855957 121.94777344 -181.50708008 122.37011719 C-183.29980469 123.25292969 -183.29980469 123.25292969 -185.29980469 123.25292969 C-185.29980469 115.66292969 -185.29980469 108.07292969 -185.29980469 100.25292969 C-183.54539062 99.3209375 -181.79097656 98.38894531 -179.98339844 97.42871094 C-167.48637522 90.77219069 -155.04783247 84.04414673 -142.74682617 77.02954102 C-135.97929169 73.17861078 -129.15665625 69.44223198 -122.29980469 65.75292969 C-114.45428002 61.53129022 -106.66612184 57.22520975 -98.92480469 52.81542969 C-89.57109194 47.48994052 -80.1247633 42.35448835 -70.63793945 37.27050781 C-62.33540067 32.81932976 -54.08627736 28.28268567 -45.86474609 23.68408203 C-42.8084364 21.97876246 -39.74764084 20.28163518 -36.68652344 18.58496094 C-36.10420456 18.26195007 -35.52188568 17.93893921 -34.92192078 17.60614014 C-31.95492676 15.96039298 -28.98678454 14.31678934 -26.01635742 12.67724609 C-21.17963235 10.00032083 -16.35516789 7.32418343 -11.63574219 4.44433594 C-10.98959961 4.05391113 -10.34345703 3.66348633 -9.67773438 3.26123047 C-8.07615943 2.28288677 -6.48799417 1.28267731 -4.90136719 0.28027344 C-2.29980469 -0.74707031 -2.29980469 -0.74707031 0 0 Z " fill="#CDCDCD" transform="translate(257.2998046875,73.7470703125)"/>
<path d="M0 0 C6.14033484 -0.52258169 10.78515779 0.64249885 16 4 C20.88616528 8.48456265 25.57816235 13.24642019 26.18954086 20.13588715 C26.27495534 22.84134684 26.29306076 25.54024554 26.29052734 28.24707031 C26.29724457 29.27697586 26.30396179 30.30688141 26.31088257 31.36799622 C26.32987357 34.77142163 26.33378757 38.1746499 26.3359375 41.578125 C26.34236541 43.94838542 26.34909376 46.31864505 26.35610962 48.68890381 C26.36808569 53.65866942 26.37179017 58.62836551 26.37060547 63.59814453 C26.37040244 69.95450619 26.39768719 76.31041996 26.43214989 82.66667557 C26.45443142 87.56357861 26.45844259 92.46037416 26.45738602 97.35732269 C26.45974074 99.69999482 26.46855697 102.04266997 26.48405075 104.38529205 C26.5037322 107.66896026 26.49786315 110.95166657 26.48583984 114.23535156 C26.49707886 115.19566788 26.50831787 116.15598419 26.51989746 117.145401 C26.45175767 124.5000405 24.64091807 130.2901389 20.359375 136.3046875 C15.2420471 141.29780841 10.26921578 144.12887729 3 144.1875 C2.01 144.125625 1.02 144.06375 0 144 C0.39832031 143.46632813 0.79664063 142.93265625 1.20703125 142.3828125 C1.73683594 141.63773438 2.26664062 140.89265625 2.8125 140.125 C3.33457031 139.40570313 3.85664063 138.68640625 4.39453125 137.9453125 C9.71211831 128.1899338 9.47141894 117.98769519 9.51171875 107.1796875 C9.52859094 105.46760797 9.54674455 103.75554063 9.56611633 102.04348755 C9.61334695 97.56872368 9.6433297 93.09400927 9.66955566 88.61907959 C9.69949813 84.04022457 9.74598097 79.46153955 9.79101562 74.8828125 C9.87674187 65.92194504 9.94269104 56.9610943 10 48 C4.72 48 -0.56 48 -6 48 C-6 69.12 -6 90.24 -6 112 C-11.28 112 -16.56 112 -22 112 C-22 90.88 -22 69.76 -22 48 C-27.28 48 -32.56 48 -38 48 C-38 42.72 -38 37.44 -38 32 C-22.16 32 -6.32 32 10 32 C9.03685416 17.55281242 7.40792183 11.14224308 0 0 Z " fill="#FD6F44" transform="translate(470,352)"/>
<path d="M0 0 C1.12223213 -0.01879967 1.12223213 -0.01879967 2.26713562 -0.03797913 C3.06303604 -0.02472092 3.85893646 -0.01146271 4.67895508 0.00219727 C5.9312365 -0.00142067 5.9312365 -0.00142067 7.20881653 -0.00511169 C8.97308098 -0.00413431 10.7373765 0.00923363 12.50146484 0.03417969 C15.17304499 0.06827879 17.84127384 0.0548872 20.51293945 0.03540039 C30.43762031 0.04272243 39.24409383 0.16762249 47.41333008 6.49047852 C52.34415503 12.56304665 55.74865753 18.39461794 55.35083008 26.49438477 C53.96100682 35.23269883 50.04491243 40.47516739 43.01098633 45.63110352 C43.65592692 49.50873122 44.81323536 52.86132473 46.33129883 56.48266602 C46.78375977 57.58094727 47.2362207 58.67922852 47.70239258 59.81079102 C48.66204713 62.11709979 49.62562319 64.42178054 50.59301758 66.72485352 C51.04290039 67.82055664 51.4927832 68.91625977 51.95629883 70.04516602 C52.37411621 71.04499512 52.79193359 72.04482422 53.22241211 73.07495117 C54.01098633 75.63110352 54.01098633 75.63110352 53.01098633 78.63110352 C50.86645508 79.79907227 50.86645508 79.79907227 48.19848633 80.81860352 C47.32579102 81.1627832 46.4530957 81.50696289 45.55395508 81.86157227 C43.01098633 82.63110352 43.01098633 82.63110352 39.01098633 82.63110352 C37.15514622 78.11223915 35.30385222 73.59155001 33.45678711 69.0690918 C32.82750749 67.53016688 32.19697822 65.99175234 31.56518555 64.45385742 C30.65842649 62.24603434 29.7561451 60.03642795 28.85473633 57.82641602 C28.5703772 57.13677765 28.28601807 56.44713928 27.99304199 55.73660278 C26.01098633 50.85884693 26.01098633 50.85884693 26.01098633 48.63110352 C19.74098633 48.63110352 13.47098633 48.63110352 7.01098633 48.63110352 C7.01098633 59.19110352 7.01098633 69.75110352 7.01098633 80.63110352 C1.73098633 80.63110352 -3.54901367 80.63110352 -8.98901367 80.63110352 C-9.10201933 70.93869534 -9.19373204 61.24672538 -9.24807453 51.55380726 C-9.27415758 47.05287494 -9.30953143 42.55241707 -9.36621094 38.05175781 C-9.42057773 33.7075046 -9.45044394 29.36370742 -9.46339989 25.01914024 C-9.47263148 23.36250314 -9.49065913 21.70589072 -9.51766396 20.04944801 C-9.55401865 17.7269175 -9.55895669 15.40626581 -9.55664062 13.08349609 C-9.574617 12.40016708 -9.59259338 11.71683807 -9.6111145 11.01280212 C-9.57071885 7.26355322 -9.03864352 5.69463062 -6.70285034 2.70477295 C-3.16920289 0.00467799 -3.16920289 0.00467799 0 0 Z " fill="#000000" transform="translate(224.989013671875,383.368896484375)"/>
<path d="M0 0 C31.68 0 63.36 0 96 0 C96 36.96 96 73.92 96 112 C98.64 112 101.28 112 104 112 C104 117.28 104 122.56 104 128 C102.02966797 128.03867187 102.02966797 128.03867187 100.01953125 128.078125 C98.2838215 128.13441829 96.5481457 128.19176535 94.8125 128.25 C93.51602539 128.27126953 93.51602539 128.27126953 92.19335938 128.29296875 C91.35224609 128.32519531 90.51113281 128.35742188 89.64453125 128.390625 C88.87471924 128.41157227 88.10490723 128.43251953 87.31176758 128.45410156 C84.19247243 129.19068874 82.4331435 130.96933054 80 133 C79.99191315 131.90276611 79.98382629 130.80553223 79.97549438 129.67504883 C79.89789401 119.31727326 79.81011984 108.9596268 79.71247292 98.60202026 C79.66260042 93.27751249 79.61626966 87.9530237 79.578125 82.62841797 C79.54115784 77.4865836 79.49476705 72.34491153 79.44193649 67.20321655 C79.42345319 65.24493263 79.40832303 63.28661399 79.39665604 61.32827759 C79.3796895 58.57805891 79.35062992 55.82820702 79.31884766 53.078125 C79.31668747 52.27467148 79.31452728 51.47121796 79.31230164 50.64341736 C79.17155677 41.06343423 76.84998975 32.04516036 70.05859375 24.98046875 C61.19472931 17.44856247 50.82956801 16.55497237 39.55078125 16.48828125 C38.41215134 16.47033005 37.27352142 16.45237885 36.10038757 16.43388367 C32.50446145 16.38019699 28.90866483 16.34601887 25.3125 16.3125 C22.85740401 16.27929019 20.40232502 16.2447972 17.94726562 16.20898438 C11.96493786 16.12449456 5.98264572 16.05748574 0 16 C0 10.72 0 5.44 0 0 Z " fill="#F1BB88" transform="translate(104,208)"/>
<path d="M0 0 C5.53946769 1.7121991 7.86736983 5.44879604 10.828125 10.24609375 C11.45589844 11.25736328 12.08367187 12.26863281 12.73046875 13.31054688 C13.69919922 14.88932617 13.69919922 14.88932617 14.6875 16.5 C15.31785156 17.51771484 15.94820313 18.53542969 16.59765625 19.58398438 C18.55036055 22.73972952 20.49385236 25.90116874 22.4375 29.0625 C25.0775 33.3525 27.7175 37.6425 30.4375 42.0625 C30.7675 28.2025 31.0975 14.3425 31.4375 0.0625 C36.7175 0.0625 41.9975 0.0625 47.4375 0.0625 C47.48267889 9.6418151 47.51937469 19.22105948 47.54112434 28.800457 C47.5515629 33.24852201 47.56572345 37.69651036 47.58837891 42.14453125 C47.61010467 46.43686934 47.62206808 50.72913369 47.62725449 55.02152252 C47.63095072 56.65938732 47.63816849 58.29724807 47.64896011 59.93508148 C47.66347155 62.22861972 47.6654781 64.52185295 47.66455078 66.81542969 C47.668992 68.12114929 47.67343323 69.4268689 47.67800903 70.77215576 C47.45265725 73.8551375 47.14816625 75.53300339 45.4375 78.0625 C42.47592928 80.10496256 39.98524927 80.66821329 36.4375 80.0625 C32.79784749 76.81398745 30.20840823 73.43581563 27.6953125 69.2734375 C27.02113281 68.16613281 26.34695313 67.05882812 25.65234375 65.91796875 C24.9554408 64.7579857 24.25882722 63.59782875 23.5625 62.4375 C22.19091137 60.17398984 20.81852247 57.9109644 19.4453125 55.6484375 C18.84348145 54.6486084 18.24165039 53.6487793 17.62158203 52.61865234 C14.61909036 47.72995418 11.51760883 42.90267102 8.4375 38.0625 C8.1075 51.9225 7.7775 65.7825 7.4375 80.0625 C2.1575 80.0625 -3.1225 80.0625 -8.5625 80.0625 C-8.67550566 70.37009183 -8.76721837 60.67812186 -8.82156086 50.98520374 C-8.84764391 46.48427143 -8.88301776 41.98381356 -8.93969727 37.4831543 C-8.99406406 33.13890108 -9.02393027 28.79510391 -9.03688622 24.45053673 C-9.04611781 22.79389962 -9.06414546 21.13728721 -9.09115028 19.4808445 C-9.12750498 17.15831399 -9.13244301 14.8376623 -9.13012695 12.51489258 C-9.14810333 11.83156357 -9.16607971 11.14823456 -9.18460083 10.44419861 C-9.14392763 6.66918967 -8.60238242 5.11357464 -6.24967957 2.10063171 C-3.5625 0.0625 -3.5625 0.0625 0 0 Z " fill="#000000" transform="translate(368.5625,383.9375)"/>
<path d="M0 0 C2.88797284 1.34006117 5.69740311 2.77060173 8.50488281 4.27246094 C9.6337793 4.87590332 10.76267578 5.4793457 11.92578125 6.10107422 C13.1423822 6.75561855 14.35885034 7.4104098 15.57519531 8.06542969 C16.50724792 8.56571686 16.50724792 8.56571686 17.45812988 9.07611084 C26.79360246 14.08863159 36.0492035 19.22826093 45.25439453 24.47680664 C52.02133955 28.3278992 58.84372758 32.06383392 65.70019531 35.75292969 C73.54571998 39.97456915 81.33387816 44.28064962 89.07519531 48.69042969 C98.42890806 54.01591885 107.8752367 59.15137103 117.36206055 64.23535156 C125.68650313 68.69827274 133.95764404 73.24671676 142.20117188 77.85693359 C168.95325165 92.8010907 195.77781957 107.61781327 222.70019531 122.25292969 C222.70019531 124.56292969 222.70019531 126.87292969 222.70019531 129.25292969 C216.73719549 127.63383702 211.75108868 124.57946998 206.45019531 121.50292969 C197.93407189 116.62093605 189.359302 111.87647304 180.70019531 107.25292969 C171.51948322 102.34370469 162.42806828 97.30307641 153.38378906 92.14746094 C146.21281519 88.0737165 138.97253743 84.14242513 131.70019531 80.25292969 C122.47411256 75.31812748 113.334247 70.25593086 104.24316406 65.07714844 C97.44256954 61.21253472 90.58813071 57.45937967 83.70019531 53.75292969 C74.84907573 48.98963922 66.08042846 44.09927304 57.34472656 39.12792969 C49.52980327 34.69272083 41.64009286 30.40688843 33.72460938 26.15429688 C25.40779441 21.6726547 17.18692011 17.03160651 9.00878906 12.30175781 C7.65720703 11.52735352 7.65720703 11.52735352 6.27832031 10.73730469 C5.48844727 10.2806543 4.69857422 9.82400391 3.88476562 9.35351562 C0.92199939 7.84680384 0.92199939 7.84680384 -2.29980469 7.25292969 C-5.08086168 8.34206178 -5.08086168 8.34206178 -8.01464844 10.09277344 C-9.16078613 10.73545166 -10.30692383 11.37812988 -11.48779297 12.0402832 C-12.7376919 12.7568911 -13.98752739 13.47360967 -15.23730469 14.19042969 C-16.53849765 14.92471209 -17.84043117 15.65768357 -19.14306641 16.3894043 C-21.85266018 17.91275922 -24.55896146 19.44174071 -27.26318359 20.97460938 C-32.85845153 24.14027595 -38.49343603 27.2332306 -44.12811279 30.32800293 C-47.14177045 31.98425029 -50.15260595 33.64560257 -53.16308594 35.30761719 C-53.75581299 35.63483765 -54.34854004 35.96205811 -54.95922852 36.29919434 C-61.35219287 39.83081621 -67.73148514 43.38692111 -74.11230469 46.94042969 C-82.56058436 51.64487781 -91.03699266 56.29133605 -99.54980469 60.87792969 C-108.31659655 65.60138876 -117.00139268 70.45328634 -125.65625 75.37841797 C-133.48708817 79.82283943 -141.39492829 84.11357871 -149.32373047 88.38012695 C-156.15660414 92.06655912 -162.92883135 95.8475583 -169.67480469 99.69042969 C-179.05507084 105.03204897 -188.5282289 110.18314872 -198.04736328 115.27270508 C-205.01138538 119.00097765 -211.92764266 122.79803127 -218.75854492 126.765625 C-223.08969939 129.25292969 -223.08969939 129.25292969 -225.29980469 129.25292969 C-225.29980469 126.94292969 -225.29980469 124.63292969 -225.29980469 122.25292969 C-223.85927734 121.50462891 -223.85927734 121.50462891 -222.38964844 120.74121094 C-213.99938012 116.35451099 -205.71155725 111.81863046 -197.48730469 107.12792969 C-188.83160484 102.19503316 -180.09548184 97.43035452 -171.29980469 92.75292969 C-161.70032781 87.6469674 -152.18666231 82.41250775 -142.74121094 77.02636719 C-135.97556941 73.17646239 -129.15476014 69.44121178 -122.29980469 65.75292969 C-114.45428002 61.53129022 -106.66612184 57.22520975 -98.92480469 52.81542969 C-89.57109194 47.48994052 -80.1247633 42.35448835 -70.63793945 37.27050781 C-62.33540067 32.81932976 -54.08627736 28.28268567 -45.86474609 23.68408203 C-42.8084364 21.97876246 -39.74764084 20.28163518 -36.68652344 18.58496094 C-36.10420456 18.26195007 -35.52188568 17.93893921 -34.92192078 17.60614014 C-31.95492676 15.96039298 -28.98678454 14.31678934 -26.01635742 12.67724609 C-21.17963235 10.00032083 -16.35516789 7.32418343 -11.63574219 4.44433594 C-10.98959961 4.05391113 -10.34345703 3.66348633 -9.67773438 3.26123047 C-8.07615943 2.28288677 -6.48799417 1.28267731 -4.90136719 0.28027344 C-2.29980469 -0.74707031 -2.29980469 -0.74707031 0 0 Z " fill="#F98F67" transform="translate(257.2998046875,33.7470703125)"/>
<path d="M0 0 C0.88068649 0.00007553 1.76137299 0.00015106 2.66874695 0.00022888 C3.61570938 0.00539017 4.56267181 0.01055145 5.53833008 0.01586914 C6.51071121 0.01728409 7.48309235 0.01869904 8.48493958 0.02015686 C11.59261137 0.02575722 14.70021129 0.03830977 17.80786133 0.05102539 C19.91398008 0.05604034 22.02009996 0.06060326 24.1262207 0.06469727 C29.29096197 0.07572677 34.45564946 0.09299164 39.62036133 0.11352539 C39.62036133 5.39352539 39.62036133 10.67352539 39.62036133 16.11352539 C26.42036133 16.11352539 13.22036133 16.11352539 -0.37963867 16.11352539 C-0.37963867 21.39352539 -0.37963867 26.67352539 -0.37963867 32.11352539 C10.18036133 32.11352539 20.74036133 32.11352539 31.62036133 32.11352539 C31.62036133 37.39352539 31.62036133 42.67352539 31.62036133 48.11352539 C21.06036133 48.11352539 10.50036133 48.11352539 -0.37963867 48.11352539 C-0.37963867 53.39352539 -0.37963867 58.67352539 -0.37963867 64.11352539 C12.82036133 64.11352539 26.02036133 64.11352539 39.62036133 64.11352539 C39.62036133 69.39352539 39.62036133 74.67352539 39.62036133 80.11352539 C33.48230658 80.21271703 27.3447228 80.28514704 21.20605469 80.33325195 C19.11970894 80.35331453 17.03341906 80.38057129 14.94726562 80.4152832 C11.94102154 80.46403698 8.93552364 80.48654806 5.92895508 80.50415039 C5.00263779 80.52479553 4.0763205 80.54544067 3.12193298 80.56671143 C-2.62404954 80.56868329 -6.98316402 80.02718454 -11.37963867 76.11352539 C-17.18147246 70.00500089 -17.10048151 63.383837 -17.00854492 55.32836914 C-17.01095688 54.11331192 -17.01336884 52.8982547 -17.01585388 51.64637756 C-17.01487772 49.08713505 -17.00153975 46.52787081 -16.9765625 43.96875 C-16.94221662 40.05989655 -16.95592868 36.15330093 -16.9753418 32.24438477 C-16.96844389 29.75153664 -16.95877202 27.25869432 -16.94604492 24.76586914 C-16.95100479 23.60216293 -16.95596466 22.43845673 -16.96107483 21.23948669 C-16.86572448 14.64763992 -16.35042128 10.4539839 -12.37963867 5.11352539 C-8.39210409 1.41776163 -5.40554708 -0.01548867 0 0 Z " fill="#000000" transform="translate(304.379638671875,383.886474609375)"/>
<path d="M0 0 C5.61 0 11.22 0 17 0 C13 7 13 7 10.6875 9.9375 C8.9099374 13.16344695 8.52445256 15.13129862 9.171875 18.76953125 C10.6026572 22.62319463 13.03454452 25.74170354 15.50390625 28.99609375 C17 31 17 31 17 32 C11.39 32 5.78 32 0 32 C0 29.36 0 26.72 0 24 C-1.22917648 24.01110306 -2.45835297 24.02220612 -3.72477722 24.03364563 C-15.30474407 24.13497405 -26.88462105 24.20994278 -38.46493053 24.25906086 C-44.41862136 24.28516194 -50.3719545 24.32057029 -56.32543945 24.37719727 C-62.0701938 24.43149735 -67.81460395 24.46141668 -73.55959511 24.47438622 C-75.75210299 24.48362958 -77.94459188 24.50167971 -80.13695335 24.52865028 C-83.20654479 24.56491304 -86.27471148 24.56994638 -89.34448242 24.56762695 C-90.25222916 24.58560333 -91.15997589 24.60357971 -92.0952301 24.62210083 C-96.55862439 24.58557354 -98.41625213 24.44727291 -102.06440735 21.65202332 C-104 19 -104 19 -104.625 16 C-103.75991233 11.84757918 -102.36227833 10.57620813 -99 8 C-95.77744708 7.29008577 -92.63266118 7.36725626 -89.34448242 7.43237305 C-88.3781488 7.43164291 -87.41181519 7.43091278 -86.41619873 7.43016052 C-83.22871365 7.43363822 -80.04269789 7.47250925 -76.85546875 7.51171875 C-74.64301858 7.52104619 -72.43055807 7.52816263 -70.21809387 7.53315735 C-64.39978436 7.55223233 -58.58210064 7.60133835 -52.76403809 7.65667725 C-46.82520005 7.7078584 -40.88626072 7.73066903 -34.94726562 7.75585938 C-23.2979024 7.80945586 -11.64900327 7.89477544 0 8 C0 5.36 0 2.72 0 0 Z " fill="#956756" transform="translate(120,408)"/>
<path d="M0 0 C15.84 0 31.68 0 48 0 C48 9.57 48 19.14 48 29 C35.92542308 35.86741562 23.83419675 42.68716088 11.625 49.3125 C10.57957031 49.88121826 9.53414062 50.44993652 8.45703125 51.03588867 C7.49410156 51.55642822 6.53117187 52.07696777 5.5390625 52.61328125 C4.68521973 53.07516846 3.83137695 53.53705566 2.95166016 54.01293945 C1 55 1 55 0 55 C0 36.85 0 18.7 0 0 Z " fill="#B1866C" transform="translate(96,48)"/>
<path d="M0 0 C15.84 0 31.68 0 48 0 C48 5.28 48 10.56 48 16 C42.72 16 37.44 16 32 16 C32 37.12 32 58.24 32 80 C26.72 80 21.44 80 16 80 C16 58.88 16 37.76 16 16 C10.72 16 5.44 16 0 16 C0 10.72 0 5.44 0 0 Z " fill="#000000" transform="translate(432,384)"/>
<path d="M0 0 C0.89490646 0.01110306 1.78981293 0.02220612 2.71183777 0.03364563 C3.73251846 0.03402328 4.75319916 0.03440094 5.80480957 0.03479004 C7.43944405 0.07349968 7.43944405 0.07349968 9.10710144 0.11299133 C10.79448677 0.12360344 10.79448677 0.12360344 12.51596069 0.13442993 C16.10301168 0.16238114 19.68849231 0.22512542 23.27507019 0.28877258 C25.70929241 0.31385431 28.14353914 0.33666769 30.57780457 0.35713196 C36.54048231 0.40795601 42.4997722 0.50581691 48.46257019 0.60127258 C48.46257019 11.16127258 48.46257019 21.72127258 48.46257019 32.60127258 C29.98257019 32.60127258 11.50257019 32.60127258 -7.53742981 32.60127258 C-7.53742981 1.78607892 -7.53742981 1.78607892 0 0 Z " fill="#A2D3FE" transform="translate(255.5374298095703,207.3987274169922)"/>
<path d="M0 0 C18.48 0 36.96 0 56 0 C56 10.56 56 21.12 56 32 C48.80970024 32.0688433 41.62054244 32.12858722 34.43017578 32.16479492 C31.98384732 32.1798877 29.53754593 32.20036402 27.09130859 32.22631836 C23.57642943 32.26267918 20.06190782 32.27972161 16.546875 32.29296875 C15.4519574 32.30845261 14.35703979 32.32393646 13.22894287 32.33988953 C12.20818665 32.34011612 11.18743042 32.34034271 10.13574219 32.34057617 C9.23861511 32.34723801 8.34148804 32.35389984 7.41717529 32.36076355 C4.47819523 31.92212061 3.13421049 31.0419285 1 29 C-2.05868527 19.8239442 0 9.67241209 0 0 Z " fill="#64B0FB" transform="translate(248,256)"/>
<path d="M0 0 C7.0295835 -0.06889247 14.0579943 -0.12862175 21.08764648 -0.16479492 C23.4786374 -0.17987543 25.86960068 -0.20034277 28.26049805 -0.22631836 C31.69847435 -0.26273306 35.13608469 -0.27973399 38.57421875 -0.29296875 C39.64210129 -0.30845261 40.70998383 -0.32393646 41.81022644 -0.33988953 C51.1552462 -0.34200565 51.1552462 -0.34200565 55 3 C59.32563419 11.65126837 56 22.32758791 56 32 C37.52 32 19.04 32 0 32 C0 21.44 0 10.88 0 0 Z " fill="#64B0FB" transform="translate(352,208)"/>
<path d="M0 0 C18.48 0 36.96 0 56 0 C56 26 56 26 53 31 C50.04601242 31.98466253 48.14750978 32.12127836 45.06958008 32.11352539 C44.06876907 32.11344986 43.06795807 32.11337433 42.03681946 32.11329651 C40.95861435 32.10813522 39.88040924 32.10297394 38.76953125 32.09765625 C37.66397385 32.0962413 36.55841644 32.09482635 35.4193573 32.09336853 C31.88371083 32.08776514 28.34812738 32.07521204 24.8125 32.0625 C22.41731862 32.05748544 20.02213625 32.05292246 17.62695312 32.04882812 C11.75125819 32.03864494 5.87569975 32.01907007 0 32 C0 21.44 0 10.88 0 0 Z " fill="#A2D3FE" transform="translate(352,256)"/>
<path d="M0 0 C5.28 0 10.56 0 16 0 C16 26.4 16 52.8 16 80 C10.72 80 5.44 80 0 80 C0 53.6 0 27.2 0 0 Z " fill="#966857" transform="translate(320,208)"/>
<path d="M0 0 C21.12 0 42.24 0 64 0 C64 5.28 64 10.56 64 16 C42.88 16 21.76 16 0 16 C0 10.72 0 5.44 0 0 Z " fill="#FF7045" transform="translate(88,16)"/>
<path d="M0 0 C15.84 0 31.68 0 48 0 C48 5.28 48 10.56 48 16 C32.16 16 16.32 16 0 16 C0 10.72 0 5.44 0 0 Z " fill="#966857" transform="translate(96,48)"/>
<path d="M0 0 C2.64 0 5.28 0 8 0 C8 26.4 8 52.8 8 80 C5.36 80 2.72 80 0 80 C0 53.6 0 27.2 0 0 Z " fill="#B2876D" transform="translate(320,208)"/>
<path d="M0 0 C21.12 0 42.24 0 64 0 C64 2.64 64 5.28 64 8 C42.88 8 21.76 8 0 8 C0 5.36 0 2.72 0 0 Z " fill="#FF936B" transform="translate(88,16)"/>
<path d="M0 0 C4.39685683 -0.13487291 8.7895828 -0.23408579 13.1875 -0.3125 C14.43337891 -0.35439453 15.67925781 -0.39628906 16.96289062 -0.43945312 C27.26947612 -0.57761111 27.26947612 -0.57761111 30.32421875 2.33203125 C32.40147555 5.63917902 32.79827906 7.16826049 32 11 C30.34889531 13.62868183 29.67293188 14.59350965 27 16 C22.38410192 16.62909235 17.83498616 16.46877863 13.1875 16.3125 C11.92228516 16.28994141 10.65707031 16.26738281 9.35351562 16.24414062 C6.23517021 16.18530392 3.11743411 16.09562681 0 16 C0 10.72 0 5.44 0 0 Z " fill="#FC926A" transform="translate(232,400)"/>
</svg>
